M48
;DRILL file {KiCad 4.0.7-e2-6376~58~ubuntu14.04.1} date Sun Nov  5 14:12:17 2017
;FORMAT={-:-/ absolute / metric / decimal}
FMAT,2
METRIC,TZ
T1C0.300
T2C0.800
T3C1.001
T4C2.000
%
G90
G05
M71
T1
X110.5Y-92.3
X116.Y-95.
X131.174Y-84.496
X131.706Y-83.964
X136.83Y-77.28
X147.1Y-81.524
X147.1Y-82.276
X160.5Y-134.5
X160.5Y-137.
X163.7Y-94.124
X163.7Y-94.876
X170.32Y-109.07
X172.194Y-109.024
X172.726Y-109.556
X175.5Y-109.9
X175.934Y-82.204
X176.466Y-82.736
X177.132Y-116.544
X177.132Y-117.297
X178.7Y-111.7
X179.Y-129.
X179.602Y-129.8
X180.1Y-126.
X181.Y-126.
X182.Y-102.5
X182.Y-112.
X182.Y-112.752
X182.5Y-134.
X182.5Y-146.
X183.Y-101.3
X183.114Y-110.686
X183.674Y-112.774
X183.7Y-113.6
X183.826Y-111.826
X183.9Y-122.9
X183.9Y-127.
X184.Y-138.
X184.016Y-109.924
X184.3Y-131.6
X186.7Y-122.5
X186.7Y-123.4
X186.7Y-124.3
X186.726Y-125.126
X187.1Y-119.9
X187.474Y-106.474
X188.1Y-110.892
X188.2Y-110.1
X188.8Y-110.6
X189.4Y-111.1
X189.7Y-109.
X190.Y-111.6
X190.1Y-115.1
X190.6Y-112.1
X191.2Y-112.6
X191.4Y-100.4
X192.Y-131.
X192.1Y-117.
X192.3Y-123.6
X192.702Y-116.4
X193.3Y-101.5
X193.3Y-106.1
X193.3Y-107.
X193.305Y-117.
X193.9Y-102.1
X193.9Y-146.
X194.Y-134.
X194.Y-140.
X194.1Y-105.945
X194.8Y-112.6
X195.237Y-115.3
X195.5Y-131.6
X195.7Y-101.7
X196.Y-112.9
X196.1Y-109.1
X196.624Y-112.332
X197.1Y-106.7
X197.3Y-111.7
X197.5Y-105.4
X198.1Y-135.4
X198.1Y-147.5
X198.217Y-104.617
X198.5Y-107.5
X199.Y-103.9
X199.Y-113.
X199.5Y-100.602
X199.795Y-117.737
X200.Y-98.
X200.Y-100.
X200.Y-138.
X200.398Y-123.1
X200.822Y-115.678
X201.Y-119.
X201.Y-127.2
X201.338Y-116.962
X201.798Y-126.5
X202.4Y-116.8
X204.1Y-114.5
T2
X201.8Y-102.8
X201.8Y-104.8
X201.8Y-106.8
X201.8Y-108.8
X201.8Y-110.8
X201.8Y-112.8
T3
X107.6Y-104.5
X107.6Y-121.5
X109.Y-55.42
X109.Y-57.96
X109.Y-60.5
X109.Y-63.04
X109.Y-65.58
X109.1Y-73.22
X109.1Y-75.76
X109.1Y-78.3
X109.1Y-80.84
X109.1Y-83.38
X117.13Y-99.2
X119.67Y-99.2
X124.Y-73.95
X124.Y-76.49
X124.Y-79.03
X124.Y-81.57
X124.Y-84.11
X124.Y-86.65
X130.Y-52.88
X130.Y-55.42
X130.Y-57.96
X130.Y-60.5
X130.Y-63.04
X130.Y-65.58
X130.Y-68.12
X134.15Y-91.24
X134.15Y-93.78
X134.15Y-96.32
X134.15Y-98.86
X142.8Y-131.82
X142.8Y-134.36
X142.8Y-136.9
X142.8Y-139.44
X142.8Y-141.98
X144.97Y-86.4
X145.15Y-100.1
X147.1Y-121.5
X147.2Y-104.3
X147.51Y-86.4
X147.69Y-100.1
X150.05Y-86.4
X150.23Y-100.1
X152.59Y-86.4
X152.74Y-61.15
X152.77Y-100.1
X153.889Y-114.89
X155.13Y-86.4
X155.28Y-61.15
X155.31Y-100.1
X156.429Y-114.89
X157.67Y-86.4
X157.82Y-61.15
X157.85Y-100.1
X158.48Y-119.6
X158.969Y-114.89
X160.21Y-86.4
X160.36Y-61.15
X161.02Y-119.6
X161.509Y-114.89
X161.94Y-100.65
X162.75Y-86.4
X163.56Y-119.6
X164.48Y-100.65
X165.26Y-68.75
X165.29Y-86.4
X165.67Y-114.85
X166.1Y-119.6
X167.02Y-100.65
X167.8Y-68.75
X167.83Y-86.4
X168.21Y-114.85
X168.64Y-119.6
X169.56Y-100.65
X170.34Y-68.75
X170.75Y-114.85
X171.18Y-119.6
X172.88Y-68.75
X173.29Y-114.85
X173.72Y-119.6
X175.42Y-68.75
X175.83Y-114.85
X177.96Y-68.75
X180.5Y-68.75
X183.04Y-68.75
X183.11Y-74.6
X183.11Y-77.14
X183.11Y-79.68
X183.11Y-82.22
X183.11Y-84.76
X183.11Y-87.3
X183.11Y-89.84
X191.25Y-94.05
X191.25Y-96.59
X193.79Y-94.05
X193.79Y-96.59
X196.33Y-94.05
X196.33Y-96.59
X198.87Y-94.05
X198.87Y-96.59
X201.Y-75.22
X201.Y-77.76
X201.Y-80.3
X201.Y-82.84
T4
X107.2Y-52.2
X107.2Y-147.8
X202.8Y-52.2
X202.8Y-147.8
T0
M30
