G04 #@! TF.FileFunction,Legend,Bot*
%FSLAX46Y46*%
G04 Gerber Fmt 4.6, Leading zero omitted, Abs format (unit mm)*
G04 Created by KiCad (PCBNEW 4.0.7-e2-6376~58~ubuntu14.04.1) date Sun Nov  5 14:12:04 2017*
%MOMM*%
%LPD*%
G01*
G04 APERTURE LIST*
%ADD10C,0.100000*%
%ADD11C,2.000000*%
%ADD12C,0.127000*%
%ADD13C,0.200000*%
%ADD14R,1.924000X2.599640*%
%ADD15O,1.924000X2.599640*%
%ADD16R,2.599640X1.924000*%
%ADD17O,2.599640X1.924000*%
%ADD18R,1.924000X2.398980*%
%ADD19O,1.924000X2.398980*%
%ADD20R,2.200000X1.700000*%
%ADD21O,2.200000X1.700000*%
%ADD22C,1.299160*%
%ADD23R,1.299160X1.400760*%
%ADD24R,1.400760X1.299160*%
%ADD25C,3.400000*%
G04 APERTURE END LIST*
D10*
D11*
X194319048Y-56523810D02*
X188604762Y-56523810D01*
X191461905Y-66523810D02*
X191461905Y-56523810D01*
X182414286Y-56523810D02*
X182414286Y-63666667D01*
X182890476Y-65095238D01*
X183842857Y-66047619D01*
X185271429Y-66523810D01*
X186223810Y-66523810D01*
X177652381Y-61285714D02*
X174319047Y-61285714D01*
X172890476Y-66523810D02*
X177652381Y-66523810D01*
X177652381Y-56523810D01*
X172890476Y-56523810D01*
X168604762Y-66523810D02*
X168604762Y-56523810D01*
X162890476Y-66523810D01*
X162890476Y-56523810D01*
X158604762Y-63666667D02*
X153842857Y-63666667D01*
X159557143Y-66523810D02*
X156223810Y-56523810D01*
X152890476Y-66523810D01*
X142414285Y-63666667D02*
X137652380Y-63666667D01*
X143366666Y-66523810D02*
X140033333Y-56523810D01*
X136699999Y-66523810D01*
X128604761Y-66523810D02*
X133366666Y-66523810D01*
X133366666Y-56523810D01*
X125271428Y-66523810D02*
X125271428Y-56523810D01*
X120509523Y-65571429D02*
X120033332Y-66047619D01*
X120509523Y-66523810D01*
X120985713Y-66047619D01*
X120509523Y-65571429D01*
X120509523Y-66523810D01*
X120509523Y-62714286D02*
X120985713Y-57000000D01*
X120509523Y-56523810D01*
X120033332Y-57000000D01*
X120509523Y-62714286D01*
X120509523Y-56523810D01*
D12*
X191441200Y-140406400D02*
X191441200Y-139593600D01*
X192558800Y-139619000D02*
X192558800Y-140406400D01*
X192812800Y-139593600D02*
X191187200Y-139593600D01*
X191187200Y-139593600D02*
X191187200Y-140406400D01*
X191187200Y-140406400D02*
X192812800Y-140406400D01*
X192812800Y-140406400D02*
X192812800Y-139593600D01*
X184406400Y-140558800D02*
X183593600Y-140558800D01*
X183619000Y-139441200D02*
X184406400Y-139441200D01*
X183593600Y-139187200D02*
X183593600Y-140812800D01*
X183593600Y-140812800D02*
X184406400Y-140812800D01*
X184406400Y-140812800D02*
X184406400Y-139187200D01*
X184406400Y-139187200D02*
X183593600Y-139187200D01*
X200406400Y-140558800D02*
X199593600Y-140558800D01*
X199619000Y-139441200D02*
X200406400Y-139441200D01*
X199593600Y-139187200D02*
X199593600Y-140812800D01*
X199593600Y-140812800D02*
X200406400Y-140812800D01*
X200406400Y-140812800D02*
X200406400Y-139187200D01*
X200406400Y-139187200D02*
X199593600Y-139187200D01*
X191441200Y-134406400D02*
X191441200Y-133593600D01*
X192558800Y-133619000D02*
X192558800Y-134406400D01*
X192812800Y-133593600D02*
X191187200Y-133593600D01*
X191187200Y-133593600D02*
X191187200Y-134406400D01*
X191187200Y-134406400D02*
X192812800Y-134406400D01*
X192812800Y-134406400D02*
X192812800Y-133593600D01*
X191441200Y-146406400D02*
X191441200Y-145593600D01*
X192558800Y-145619000D02*
X192558800Y-146406400D01*
X192812800Y-145593600D02*
X191187200Y-145593600D01*
X191187200Y-145593600D02*
X191187200Y-146406400D01*
X191187200Y-146406400D02*
X192812800Y-146406400D01*
X192812800Y-146406400D02*
X192812800Y-145593600D01*
X185558800Y-133593600D02*
X185558800Y-134406400D01*
X184441200Y-134381000D02*
X184441200Y-133593600D01*
X184187200Y-134406400D02*
X185812800Y-134406400D01*
X185812800Y-134406400D02*
X185812800Y-133593600D01*
X185812800Y-133593600D02*
X184187200Y-133593600D01*
X184187200Y-133593600D02*
X184187200Y-134406400D01*
X199558800Y-133593600D02*
X199558800Y-134406400D01*
X198441200Y-134381000D02*
X198441200Y-133593600D01*
X198187200Y-134406400D02*
X199812800Y-134406400D01*
X199812800Y-134406400D02*
X199812800Y-133593600D01*
X199812800Y-133593600D02*
X198187200Y-133593600D01*
X198187200Y-133593600D02*
X198187200Y-134406400D01*
X199558800Y-145593600D02*
X199558800Y-146406400D01*
X198441200Y-146381000D02*
X198441200Y-145593600D01*
X198187200Y-146406400D02*
X199812800Y-146406400D01*
X199812800Y-146406400D02*
X199812800Y-145593600D01*
X199812800Y-145593600D02*
X198187200Y-145593600D01*
X198187200Y-145593600D02*
X198187200Y-146406400D01*
X185558800Y-145593600D02*
X185558800Y-146406400D01*
X184441200Y-146381000D02*
X184441200Y-145593600D01*
X184187200Y-146406400D02*
X185812800Y-146406400D01*
X185812800Y-146406400D02*
X185812800Y-145593600D01*
X185812800Y-145593600D02*
X184187200Y-145593600D01*
X184187200Y-145593600D02*
X184187200Y-146406400D01*
D13*
X192895238Y-138961905D02*
X193161905Y-138580952D01*
X193352381Y-138961905D02*
X193352381Y-138161905D01*
X193047619Y-138161905D01*
X192971428Y-138200000D01*
X192933333Y-138238095D01*
X192895238Y-138314286D01*
X192895238Y-138428571D01*
X192933333Y-138504762D01*
X192971428Y-138542857D01*
X193047619Y-138580952D01*
X193352381Y-138580952D01*
X192590476Y-138238095D02*
X192552381Y-138200000D01*
X192476190Y-138161905D01*
X192285714Y-138161905D01*
X192209524Y-138200000D01*
X192171428Y-138238095D01*
X192133333Y-138314286D01*
X192133333Y-138390476D01*
X192171428Y-138504762D01*
X192628571Y-138961905D01*
X192133333Y-138961905D01*
X191638095Y-138161905D02*
X191561904Y-138161905D01*
X191485714Y-138200000D01*
X191447619Y-138238095D01*
X191409523Y-138314286D01*
X191371428Y-138466667D01*
X191371428Y-138657143D01*
X191409523Y-138809524D01*
X191447619Y-138885714D01*
X191485714Y-138923810D01*
X191561904Y-138961905D01*
X191638095Y-138961905D01*
X191714285Y-138923810D01*
X191752381Y-138885714D01*
X191790476Y-138809524D01*
X191828571Y-138657143D01*
X191828571Y-138466667D01*
X191790476Y-138314286D01*
X191752381Y-138238095D01*
X191714285Y-138200000D01*
X191638095Y-138161905D01*
X191104761Y-138161905D02*
X190609523Y-138161905D01*
X190876190Y-138466667D01*
X190761904Y-138466667D01*
X190685714Y-138504762D01*
X190647618Y-138542857D01*
X190609523Y-138619048D01*
X190609523Y-138809524D01*
X190647618Y-138885714D01*
X190685714Y-138923810D01*
X190761904Y-138961905D01*
X190990476Y-138961905D01*
X191066666Y-138923810D01*
X191104761Y-138885714D01*
X182961905Y-139104762D02*
X182580952Y-138838095D01*
X182961905Y-138647619D02*
X182161905Y-138647619D01*
X182161905Y-138952381D01*
X182200000Y-139028572D01*
X182238095Y-139066667D01*
X182314286Y-139104762D01*
X182428571Y-139104762D01*
X182504762Y-139066667D01*
X182542857Y-139028572D01*
X182580952Y-138952381D01*
X182580952Y-138647619D01*
X182238095Y-139409524D02*
X182200000Y-139447619D01*
X182161905Y-139523810D01*
X182161905Y-139714286D01*
X182200000Y-139790476D01*
X182238095Y-139828572D01*
X182314286Y-139866667D01*
X182390476Y-139866667D01*
X182504762Y-139828572D01*
X182961905Y-139371429D01*
X182961905Y-139866667D01*
X182161905Y-140361905D02*
X182161905Y-140438096D01*
X182200000Y-140514286D01*
X182238095Y-140552381D01*
X182314286Y-140590477D01*
X182466667Y-140628572D01*
X182657143Y-140628572D01*
X182809524Y-140590477D01*
X182885714Y-140552381D01*
X182923810Y-140514286D01*
X182961905Y-140438096D01*
X182961905Y-140361905D01*
X182923810Y-140285715D01*
X182885714Y-140247619D01*
X182809524Y-140209524D01*
X182657143Y-140171429D01*
X182466667Y-140171429D01*
X182314286Y-140209524D01*
X182238095Y-140247619D01*
X182200000Y-140285715D01*
X182161905Y-140361905D01*
X182428571Y-141314286D02*
X182961905Y-141314286D01*
X182123810Y-141123810D02*
X182695238Y-140933334D01*
X182695238Y-141428572D01*
X198961905Y-139104762D02*
X198580952Y-138838095D01*
X198961905Y-138647619D02*
X198161905Y-138647619D01*
X198161905Y-138952381D01*
X198200000Y-139028572D01*
X198238095Y-139066667D01*
X198314286Y-139104762D01*
X198428571Y-139104762D01*
X198504762Y-139066667D01*
X198542857Y-139028572D01*
X198580952Y-138952381D01*
X198580952Y-138647619D01*
X198238095Y-139409524D02*
X198200000Y-139447619D01*
X198161905Y-139523810D01*
X198161905Y-139714286D01*
X198200000Y-139790476D01*
X198238095Y-139828572D01*
X198314286Y-139866667D01*
X198390476Y-139866667D01*
X198504762Y-139828572D01*
X198961905Y-139371429D01*
X198961905Y-139866667D01*
X198161905Y-140361905D02*
X198161905Y-140438096D01*
X198200000Y-140514286D01*
X198238095Y-140552381D01*
X198314286Y-140590477D01*
X198466667Y-140628572D01*
X198657143Y-140628572D01*
X198809524Y-140590477D01*
X198885714Y-140552381D01*
X198923810Y-140514286D01*
X198961905Y-140438096D01*
X198961905Y-140361905D01*
X198923810Y-140285715D01*
X198885714Y-140247619D01*
X198809524Y-140209524D01*
X198657143Y-140171429D01*
X198466667Y-140171429D01*
X198314286Y-140209524D01*
X198238095Y-140247619D01*
X198200000Y-140285715D01*
X198161905Y-140361905D01*
X198161905Y-141352382D02*
X198161905Y-140971429D01*
X198542857Y-140933334D01*
X198504762Y-140971429D01*
X198466667Y-141047620D01*
X198466667Y-141238096D01*
X198504762Y-141314286D01*
X198542857Y-141352382D01*
X198619048Y-141390477D01*
X198809524Y-141390477D01*
X198885714Y-141352382D01*
X198923810Y-141314286D01*
X198961905Y-141238096D01*
X198961905Y-141047620D01*
X198923810Y-140971429D01*
X198885714Y-140933334D01*
X192895238Y-132961905D02*
X193161905Y-132580952D01*
X193352381Y-132961905D02*
X193352381Y-132161905D01*
X193047619Y-132161905D01*
X192971428Y-132200000D01*
X192933333Y-132238095D01*
X192895238Y-132314286D01*
X192895238Y-132428571D01*
X192933333Y-132504762D01*
X192971428Y-132542857D01*
X193047619Y-132580952D01*
X193352381Y-132580952D01*
X192590476Y-132238095D02*
X192552381Y-132200000D01*
X192476190Y-132161905D01*
X192285714Y-132161905D01*
X192209524Y-132200000D01*
X192171428Y-132238095D01*
X192133333Y-132314286D01*
X192133333Y-132390476D01*
X192171428Y-132504762D01*
X192628571Y-132961905D01*
X192133333Y-132961905D01*
X191638095Y-132161905D02*
X191561904Y-132161905D01*
X191485714Y-132200000D01*
X191447619Y-132238095D01*
X191409523Y-132314286D01*
X191371428Y-132466667D01*
X191371428Y-132657143D01*
X191409523Y-132809524D01*
X191447619Y-132885714D01*
X191485714Y-132923810D01*
X191561904Y-132961905D01*
X191638095Y-132961905D01*
X191714285Y-132923810D01*
X191752381Y-132885714D01*
X191790476Y-132809524D01*
X191828571Y-132657143D01*
X191828571Y-132466667D01*
X191790476Y-132314286D01*
X191752381Y-132238095D01*
X191714285Y-132200000D01*
X191638095Y-132161905D01*
X190685714Y-132161905D02*
X190838095Y-132161905D01*
X190914285Y-132200000D01*
X190952380Y-132238095D01*
X191028571Y-132352381D01*
X191066666Y-132504762D01*
X191066666Y-132809524D01*
X191028571Y-132885714D01*
X190990476Y-132923810D01*
X190914285Y-132961905D01*
X190761904Y-132961905D01*
X190685714Y-132923810D01*
X190647618Y-132885714D01*
X190609523Y-132809524D01*
X190609523Y-132619048D01*
X190647618Y-132542857D01*
X190685714Y-132504762D01*
X190761904Y-132466667D01*
X190914285Y-132466667D01*
X190990476Y-132504762D01*
X191028571Y-132542857D01*
X191066666Y-132619048D01*
X192895238Y-144861905D02*
X193161905Y-144480952D01*
X193352381Y-144861905D02*
X193352381Y-144061905D01*
X193047619Y-144061905D01*
X192971428Y-144100000D01*
X192933333Y-144138095D01*
X192895238Y-144214286D01*
X192895238Y-144328571D01*
X192933333Y-144404762D01*
X192971428Y-144442857D01*
X193047619Y-144480952D01*
X193352381Y-144480952D01*
X192590476Y-144138095D02*
X192552381Y-144100000D01*
X192476190Y-144061905D01*
X192285714Y-144061905D01*
X192209524Y-144100000D01*
X192171428Y-144138095D01*
X192133333Y-144214286D01*
X192133333Y-144290476D01*
X192171428Y-144404762D01*
X192628571Y-144861905D01*
X192133333Y-144861905D01*
X191638095Y-144061905D02*
X191561904Y-144061905D01*
X191485714Y-144100000D01*
X191447619Y-144138095D01*
X191409523Y-144214286D01*
X191371428Y-144366667D01*
X191371428Y-144557143D01*
X191409523Y-144709524D01*
X191447619Y-144785714D01*
X191485714Y-144823810D01*
X191561904Y-144861905D01*
X191638095Y-144861905D01*
X191714285Y-144823810D01*
X191752381Y-144785714D01*
X191790476Y-144709524D01*
X191828571Y-144557143D01*
X191828571Y-144366667D01*
X191790476Y-144214286D01*
X191752381Y-144138095D01*
X191714285Y-144100000D01*
X191638095Y-144061905D01*
X191104761Y-144061905D02*
X190571428Y-144061905D01*
X190914285Y-144861905D01*
X185895238Y-132861905D02*
X186161905Y-132480952D01*
X186352381Y-132861905D02*
X186352381Y-132061905D01*
X186047619Y-132061905D01*
X185971428Y-132100000D01*
X185933333Y-132138095D01*
X185895238Y-132214286D01*
X185895238Y-132328571D01*
X185933333Y-132404762D01*
X185971428Y-132442857D01*
X186047619Y-132480952D01*
X186352381Y-132480952D01*
X185590476Y-132138095D02*
X185552381Y-132100000D01*
X185476190Y-132061905D01*
X185285714Y-132061905D01*
X185209524Y-132100000D01*
X185171428Y-132138095D01*
X185133333Y-132214286D01*
X185133333Y-132290476D01*
X185171428Y-132404762D01*
X185628571Y-132861905D01*
X185133333Y-132861905D01*
X184638095Y-132061905D02*
X184561904Y-132061905D01*
X184485714Y-132100000D01*
X184447619Y-132138095D01*
X184409523Y-132214286D01*
X184371428Y-132366667D01*
X184371428Y-132557143D01*
X184409523Y-132709524D01*
X184447619Y-132785714D01*
X184485714Y-132823810D01*
X184561904Y-132861905D01*
X184638095Y-132861905D01*
X184714285Y-132823810D01*
X184752381Y-132785714D01*
X184790476Y-132709524D01*
X184828571Y-132557143D01*
X184828571Y-132366667D01*
X184790476Y-132214286D01*
X184752381Y-132138095D01*
X184714285Y-132100000D01*
X184638095Y-132061905D01*
X183914285Y-132404762D02*
X183990476Y-132366667D01*
X184028571Y-132328571D01*
X184066666Y-132252381D01*
X184066666Y-132214286D01*
X184028571Y-132138095D01*
X183990476Y-132100000D01*
X183914285Y-132061905D01*
X183761904Y-132061905D01*
X183685714Y-132100000D01*
X183647618Y-132138095D01*
X183609523Y-132214286D01*
X183609523Y-132252381D01*
X183647618Y-132328571D01*
X183685714Y-132366667D01*
X183761904Y-132404762D01*
X183914285Y-132404762D01*
X183990476Y-132442857D01*
X184028571Y-132480952D01*
X184066666Y-132557143D01*
X184066666Y-132709524D01*
X184028571Y-132785714D01*
X183990476Y-132823810D01*
X183914285Y-132861905D01*
X183761904Y-132861905D01*
X183685714Y-132823810D01*
X183647618Y-132785714D01*
X183609523Y-132709524D01*
X183609523Y-132557143D01*
X183647618Y-132480952D01*
X183685714Y-132442857D01*
X183761904Y-132404762D01*
X199895238Y-132861905D02*
X200161905Y-132480952D01*
X200352381Y-132861905D02*
X200352381Y-132061905D01*
X200047619Y-132061905D01*
X199971428Y-132100000D01*
X199933333Y-132138095D01*
X199895238Y-132214286D01*
X199895238Y-132328571D01*
X199933333Y-132404762D01*
X199971428Y-132442857D01*
X200047619Y-132480952D01*
X200352381Y-132480952D01*
X199590476Y-132138095D02*
X199552381Y-132100000D01*
X199476190Y-132061905D01*
X199285714Y-132061905D01*
X199209524Y-132100000D01*
X199171428Y-132138095D01*
X199133333Y-132214286D01*
X199133333Y-132290476D01*
X199171428Y-132404762D01*
X199628571Y-132861905D01*
X199133333Y-132861905D01*
X198638095Y-132061905D02*
X198561904Y-132061905D01*
X198485714Y-132100000D01*
X198447619Y-132138095D01*
X198409523Y-132214286D01*
X198371428Y-132366667D01*
X198371428Y-132557143D01*
X198409523Y-132709524D01*
X198447619Y-132785714D01*
X198485714Y-132823810D01*
X198561904Y-132861905D01*
X198638095Y-132861905D01*
X198714285Y-132823810D01*
X198752381Y-132785714D01*
X198790476Y-132709524D01*
X198828571Y-132557143D01*
X198828571Y-132366667D01*
X198790476Y-132214286D01*
X198752381Y-132138095D01*
X198714285Y-132100000D01*
X198638095Y-132061905D01*
X197990476Y-132861905D02*
X197838095Y-132861905D01*
X197761904Y-132823810D01*
X197723809Y-132785714D01*
X197647618Y-132671429D01*
X197609523Y-132519048D01*
X197609523Y-132214286D01*
X197647618Y-132138095D01*
X197685714Y-132100000D01*
X197761904Y-132061905D01*
X197914285Y-132061905D01*
X197990476Y-132100000D01*
X198028571Y-132138095D01*
X198066666Y-132214286D01*
X198066666Y-132404762D01*
X198028571Y-132480952D01*
X197990476Y-132519048D01*
X197914285Y-132557143D01*
X197761904Y-132557143D01*
X197685714Y-132519048D01*
X197647618Y-132480952D01*
X197609523Y-132404762D01*
X199895238Y-147961905D02*
X200161905Y-147580952D01*
X200352381Y-147961905D02*
X200352381Y-147161905D01*
X200047619Y-147161905D01*
X199971428Y-147200000D01*
X199933333Y-147238095D01*
X199895238Y-147314286D01*
X199895238Y-147428571D01*
X199933333Y-147504762D01*
X199971428Y-147542857D01*
X200047619Y-147580952D01*
X200352381Y-147580952D01*
X199590476Y-147238095D02*
X199552381Y-147200000D01*
X199476190Y-147161905D01*
X199285714Y-147161905D01*
X199209524Y-147200000D01*
X199171428Y-147238095D01*
X199133333Y-147314286D01*
X199133333Y-147390476D01*
X199171428Y-147504762D01*
X199628571Y-147961905D01*
X199133333Y-147961905D01*
X198371428Y-147961905D02*
X198828571Y-147961905D01*
X198600000Y-147961905D02*
X198600000Y-147161905D01*
X198676190Y-147276190D01*
X198752381Y-147352381D01*
X198828571Y-147390476D01*
X197876190Y-147161905D02*
X197799999Y-147161905D01*
X197723809Y-147200000D01*
X197685714Y-147238095D01*
X197647618Y-147314286D01*
X197609523Y-147466667D01*
X197609523Y-147657143D01*
X197647618Y-147809524D01*
X197685714Y-147885714D01*
X197723809Y-147923810D01*
X197799999Y-147961905D01*
X197876190Y-147961905D01*
X197952380Y-147923810D01*
X197990476Y-147885714D01*
X198028571Y-147809524D01*
X198066666Y-147657143D01*
X198066666Y-147466667D01*
X198028571Y-147314286D01*
X197990476Y-147238095D01*
X197952380Y-147200000D01*
X197876190Y-147161905D01*
X185895238Y-147961905D02*
X186161905Y-147580952D01*
X186352381Y-147961905D02*
X186352381Y-147161905D01*
X186047619Y-147161905D01*
X185971428Y-147200000D01*
X185933333Y-147238095D01*
X185895238Y-147314286D01*
X185895238Y-147428571D01*
X185933333Y-147504762D01*
X185971428Y-147542857D01*
X186047619Y-147580952D01*
X186352381Y-147580952D01*
X185590476Y-147238095D02*
X185552381Y-147200000D01*
X185476190Y-147161905D01*
X185285714Y-147161905D01*
X185209524Y-147200000D01*
X185171428Y-147238095D01*
X185133333Y-147314286D01*
X185133333Y-147390476D01*
X185171428Y-147504762D01*
X185628571Y-147961905D01*
X185133333Y-147961905D01*
X184371428Y-147961905D02*
X184828571Y-147961905D01*
X184600000Y-147961905D02*
X184600000Y-147161905D01*
X184676190Y-147276190D01*
X184752381Y-147352381D01*
X184828571Y-147390476D01*
X183609523Y-147961905D02*
X184066666Y-147961905D01*
X183838095Y-147961905D02*
X183838095Y-147161905D01*
X183914285Y-147276190D01*
X183990476Y-147352381D01*
X184066666Y-147390476D01*
%LPC*%
D14*
X153889468Y-114889744D03*
D15*
X156429468Y-114889744D03*
X158969468Y-114889744D03*
X161509468Y-114889744D03*
D16*
X109000000Y-55420000D03*
D17*
X109000000Y-57960000D03*
X109000000Y-60500000D03*
X109000000Y-63040000D03*
X109000000Y-65580000D03*
D14*
X173720000Y-119600000D03*
D15*
X171180000Y-119600000D03*
X168640000Y-119600000D03*
X166100000Y-119600000D03*
X163560000Y-119600000D03*
X161020000Y-119600000D03*
X158480000Y-119600000D03*
D14*
X144970000Y-86400000D03*
D15*
X147510000Y-86400000D03*
X150050000Y-86400000D03*
X152590000Y-86400000D03*
X155130000Y-86400000D03*
X157670000Y-86400000D03*
X160210000Y-86400000D03*
X162750000Y-86400000D03*
X165290000Y-86400000D03*
X167830000Y-86400000D03*
D14*
X161940000Y-100650000D03*
D15*
X164480000Y-100650000D03*
X167020000Y-100650000D03*
X169560000Y-100650000D03*
D14*
X175830000Y-114850000D03*
D15*
X173290000Y-114850000D03*
X170750000Y-114850000D03*
X168210000Y-114850000D03*
X165670000Y-114850000D03*
D16*
X142800000Y-131820000D03*
D17*
X142800000Y-134360000D03*
X142800000Y-136900000D03*
X142800000Y-139440000D03*
X142800000Y-141980000D03*
D16*
X134150000Y-98860000D03*
D17*
X134150000Y-96320000D03*
X134150000Y-93780000D03*
X134150000Y-91240000D03*
D16*
X130000000Y-52880000D03*
D17*
X130000000Y-55420000D03*
X130000000Y-57960000D03*
X130000000Y-60500000D03*
X130000000Y-63040000D03*
X130000000Y-65580000D03*
X130000000Y-68120000D03*
D14*
X160360000Y-61150000D03*
D15*
X157820000Y-61150000D03*
X155280000Y-61150000D03*
X152740000Y-61150000D03*
D16*
X124000000Y-86650000D03*
D17*
X124000000Y-84110000D03*
X124000000Y-81570000D03*
X124000000Y-79030000D03*
X124000000Y-76490000D03*
X124000000Y-73950000D03*
D16*
X109100000Y-83380000D03*
D17*
X109100000Y-80840000D03*
X109100000Y-78300000D03*
X109100000Y-75760000D03*
X109100000Y-73220000D03*
D14*
X183040000Y-68750000D03*
D15*
X180500000Y-68750000D03*
X177960000Y-68750000D03*
X175420000Y-68750000D03*
X172880000Y-68750000D03*
X170340000Y-68750000D03*
X167800000Y-68750000D03*
X165260000Y-68750000D03*
D16*
X201000000Y-75220000D03*
D17*
X201000000Y-77760000D03*
X201000000Y-80300000D03*
X201000000Y-82840000D03*
D18*
X191250000Y-96838920D03*
D19*
X191250000Y-93801080D03*
X193790000Y-96838920D03*
X193790000Y-93801080D03*
X196330000Y-96838920D03*
X196330000Y-93801080D03*
X198870000Y-96838920D03*
X198870000Y-93801080D03*
D14*
X145150000Y-100100000D03*
D15*
X147690000Y-100100000D03*
X150230000Y-100100000D03*
X152770000Y-100100000D03*
X155310000Y-100100000D03*
X157850000Y-100100000D03*
D20*
X201800000Y-112800000D03*
D21*
X201800000Y-110800000D03*
X201800000Y-108800000D03*
X201800000Y-106800000D03*
X201800000Y-104800000D03*
X201800000Y-102800000D03*
D22*
X110571600Y-90502900D03*
X110571600Y-94899640D03*
D23*
X191248160Y-140000000D03*
X192751840Y-140000000D03*
D24*
X184000000Y-140751840D03*
X184000000Y-139248160D03*
X200000000Y-140751840D03*
X200000000Y-139248160D03*
D23*
X191248160Y-134000000D03*
X192751840Y-134000000D03*
X191248160Y-146000000D03*
X192751840Y-146000000D03*
X185751840Y-134000000D03*
X184248160Y-134000000D03*
X199751840Y-134000000D03*
X198248160Y-134000000D03*
X199751840Y-146000000D03*
X198248160Y-146000000D03*
X185751840Y-146000000D03*
X184248160Y-146000000D03*
D25*
X107200000Y-147800000D03*
X107200000Y-52200000D03*
X202800000Y-52200000D03*
X202800000Y-147800000D03*
D14*
X119670000Y-99200000D03*
D15*
X117130000Y-99200000D03*
D14*
X107600000Y-104500000D03*
X147200000Y-104300000D03*
X107600000Y-121500000D03*
X147100000Y-121500000D03*
D16*
X183110000Y-89840000D03*
D17*
X183110000Y-87300000D03*
X183110000Y-84760000D03*
X183110000Y-82220000D03*
X183110000Y-79680000D03*
X183110000Y-77140000D03*
X183110000Y-74600000D03*
M02*
