G04 #@! TF.FileFunction,Soldermask,Top*
%FSLAX46Y46*%
G04 Gerber Fmt 4.6, Leading zero omitted, Abs format (unit mm)*
G04 Created by KiCad (PCBNEW 4.0.7-e2-6376~58~ubuntu14.04.1) date Sun Nov  5 14:12:04 2017*
%MOMM*%
%LPD*%
G01*
G04 APERTURE LIST*
%ADD10C,0.100000*%
%ADD11R,1.924000X2.599640*%
%ADD12O,1.924000X2.599640*%
%ADD13R,2.599640X1.924000*%
%ADD14O,2.599640X1.924000*%
%ADD15R,1.924000X2.398980*%
%ADD16O,1.924000X2.398980*%
%ADD17R,2.200000X1.700000*%
%ADD18O,2.200000X1.700000*%
%ADD19R,2.597100X2.597100*%
%ADD20R,2.597100X0.897840*%
%ADD21C,1.299160*%
%ADD22R,1.598880X1.598880*%
%ADD23R,1.299160X1.400760*%
%ADD24R,1.400760X1.400760*%
%ADD25C,3.400000*%
G04 APERTURE END LIST*
D10*
G36*
X189910821Y-118224120D02*
X188708400Y-117021699D01*
X189239097Y-116491002D01*
X190441518Y-117693423D01*
X189910821Y-118224120D01*
X189910821Y-118224120D01*
G37*
G36*
X190264643Y-117870298D02*
X189062222Y-116667877D01*
X189592919Y-116137180D01*
X190795340Y-117339601D01*
X190264643Y-117870298D01*
X190264643Y-117870298D01*
G37*
G36*
X190618465Y-117516476D02*
X189416044Y-116314055D01*
X189946741Y-115783358D01*
X191149162Y-116985779D01*
X190618465Y-117516476D01*
X190618465Y-117516476D01*
G37*
G36*
X190972287Y-117162654D02*
X189769866Y-115960233D01*
X190300563Y-115429536D01*
X191502984Y-116631957D01*
X190972287Y-117162654D01*
X190972287Y-117162654D01*
G37*
G36*
X191326109Y-116808832D02*
X190123688Y-115606411D01*
X190654385Y-115075714D01*
X191856806Y-116278135D01*
X191326109Y-116808832D01*
X191326109Y-116808832D01*
G37*
G36*
X188851150Y-119283791D02*
X187648729Y-118081370D01*
X188179426Y-117550673D01*
X189381847Y-118753094D01*
X188851150Y-119283791D01*
X188851150Y-119283791D01*
G37*
G36*
X189203176Y-118931765D02*
X188000755Y-117729344D01*
X188531452Y-117198647D01*
X189733873Y-118401068D01*
X189203176Y-118931765D01*
X189203176Y-118931765D01*
G37*
G36*
X189556998Y-118577942D02*
X188354577Y-117375521D01*
X188885274Y-116844824D01*
X190087695Y-118047245D01*
X189556998Y-118577942D01*
X189556998Y-118577942D01*
G37*
G36*
X193481370Y-111151271D02*
X192950673Y-110620574D01*
X194153094Y-109418153D01*
X194683791Y-109948850D01*
X193481370Y-111151271D01*
X193481370Y-111151271D01*
G37*
G36*
X193129344Y-110799245D02*
X192598647Y-110268548D01*
X193801068Y-109066127D01*
X194331765Y-109596824D01*
X193129344Y-110799245D01*
X193129344Y-110799245D01*
G37*
G36*
X192775521Y-110445423D02*
X192244824Y-109914726D01*
X193447245Y-108712305D01*
X193977942Y-109243002D01*
X192775521Y-110445423D01*
X192775521Y-110445423D01*
G37*
G36*
X192421699Y-110091600D02*
X191891002Y-109560903D01*
X193093423Y-108358482D01*
X193624120Y-108889179D01*
X192421699Y-110091600D01*
X192421699Y-110091600D01*
G37*
G36*
X192067877Y-109737778D02*
X191537180Y-109207081D01*
X192739601Y-108004660D01*
X193270298Y-108535357D01*
X192067877Y-109737778D01*
X192067877Y-109737778D01*
G37*
G36*
X191714055Y-109383956D02*
X191183358Y-108853259D01*
X192385779Y-107650838D01*
X192916476Y-108181535D01*
X191714055Y-109383956D01*
X191714055Y-109383956D01*
G37*
G36*
X191360233Y-109030134D02*
X190829536Y-108499437D01*
X192031957Y-107297016D01*
X192562654Y-107827713D01*
X191360233Y-109030134D01*
X191360233Y-109030134D01*
G37*
G36*
X191006411Y-108676312D02*
X190475714Y-108145615D01*
X191678135Y-106943194D01*
X192208832Y-107473891D01*
X191006411Y-108676312D01*
X191006411Y-108676312D01*
G37*
G36*
X186020574Y-105849327D02*
X184818153Y-104646906D01*
X185348850Y-104116209D01*
X186551271Y-105318630D01*
X186020574Y-105849327D01*
X186020574Y-105849327D01*
G37*
G36*
X185668548Y-106201353D02*
X184466127Y-104998932D01*
X184996824Y-104468235D01*
X186199245Y-105670656D01*
X185668548Y-106201353D01*
X185668548Y-106201353D01*
G37*
G36*
X185314726Y-106555176D02*
X184112305Y-105352755D01*
X184643002Y-104822058D01*
X185845423Y-106024479D01*
X185314726Y-106555176D01*
X185314726Y-106555176D01*
G37*
G36*
X184960903Y-106908998D02*
X183758482Y-105706577D01*
X184289179Y-105175880D01*
X185491600Y-106378301D01*
X184960903Y-106908998D01*
X184960903Y-106908998D01*
G37*
G36*
X184607081Y-107262820D02*
X183404660Y-106060399D01*
X183935357Y-105529702D01*
X185137778Y-106732123D01*
X184607081Y-107262820D01*
X184607081Y-107262820D01*
G37*
G36*
X184253259Y-107616642D02*
X183050838Y-106414221D01*
X183581535Y-105883524D01*
X184783956Y-107085945D01*
X184253259Y-107616642D01*
X184253259Y-107616642D01*
G37*
G36*
X183899437Y-107970464D02*
X182697016Y-106768043D01*
X183227713Y-106237346D01*
X184430134Y-107439767D01*
X183899437Y-107970464D01*
X183899437Y-107970464D01*
G37*
G36*
X183545615Y-108324286D02*
X182343194Y-107121865D01*
X182873891Y-106591168D01*
X184076312Y-107793589D01*
X183545615Y-108324286D01*
X183545615Y-108324286D01*
G37*
G36*
X180046906Y-113981847D02*
X179516209Y-113451150D01*
X180718630Y-112248729D01*
X181249327Y-112779426D01*
X180046906Y-113981847D01*
X180046906Y-113981847D01*
G37*
G36*
X180398932Y-114333873D02*
X179868235Y-113803176D01*
X181070656Y-112600755D01*
X181601353Y-113131452D01*
X180398932Y-114333873D01*
X180398932Y-114333873D01*
G37*
G36*
X180752755Y-114687695D02*
X180222058Y-114156998D01*
X181424479Y-112954577D01*
X181955176Y-113485274D01*
X180752755Y-114687695D01*
X180752755Y-114687695D01*
G37*
G36*
X181106577Y-115041518D02*
X180575880Y-114510821D01*
X181778301Y-113308400D01*
X182308998Y-113839097D01*
X181106577Y-115041518D01*
X181106577Y-115041518D01*
G37*
G36*
X181460399Y-115395340D02*
X180929702Y-114864643D01*
X182132123Y-113662222D01*
X182662820Y-114192919D01*
X181460399Y-115395340D01*
X181460399Y-115395340D01*
G37*
G36*
X181814221Y-115749162D02*
X181283524Y-115218465D01*
X182485945Y-114016044D01*
X183016642Y-114546741D01*
X181814221Y-115749162D01*
X181814221Y-115749162D01*
G37*
G36*
X182168043Y-116102984D02*
X181637346Y-115572287D01*
X182839767Y-114369866D01*
X183370464Y-114900563D01*
X182168043Y-116102984D01*
X182168043Y-116102984D01*
G37*
G36*
X182521865Y-116456806D02*
X181991168Y-115926109D01*
X183193589Y-114723688D01*
X183724286Y-115254385D01*
X182521865Y-116456806D01*
X182521865Y-116456806D01*
G37*
G36*
X191678135Y-116456806D02*
X190475714Y-115254385D01*
X191006411Y-114723688D01*
X192208832Y-115926109D01*
X191678135Y-116456806D01*
X191678135Y-116456806D01*
G37*
G36*
X192031957Y-116102984D02*
X190829536Y-114900563D01*
X191360233Y-114369866D01*
X192562654Y-115572287D01*
X192031957Y-116102984D01*
X192031957Y-116102984D01*
G37*
G36*
X192385779Y-115749162D02*
X191183358Y-114546741D01*
X191714055Y-114016044D01*
X192916476Y-115218465D01*
X192385779Y-115749162D01*
X192385779Y-115749162D01*
G37*
G36*
X190654385Y-108324286D02*
X190123688Y-107793589D01*
X191326109Y-106591168D01*
X191856806Y-107121865D01*
X190654385Y-108324286D01*
X190654385Y-108324286D01*
G37*
G36*
X190300563Y-107970464D02*
X189769866Y-107439767D01*
X190972287Y-106237346D01*
X191502984Y-106768043D01*
X190300563Y-107970464D01*
X190300563Y-107970464D01*
G37*
G36*
X189946741Y-107616642D02*
X189416044Y-107085945D01*
X190618465Y-105883524D01*
X191149162Y-106414221D01*
X189946741Y-107616642D01*
X189946741Y-107616642D01*
G37*
G36*
X183193589Y-108676312D02*
X181991168Y-107473891D01*
X182521865Y-106943194D01*
X183724286Y-108145615D01*
X183193589Y-108676312D01*
X183193589Y-108676312D01*
G37*
G36*
X182839767Y-109030134D02*
X181637346Y-107827713D01*
X182168043Y-107297016D01*
X183370464Y-108499437D01*
X182839767Y-109030134D01*
X182839767Y-109030134D01*
G37*
G36*
X182485945Y-109383956D02*
X181283524Y-108181535D01*
X181814221Y-107650838D01*
X183016642Y-108853259D01*
X182485945Y-109383956D01*
X182485945Y-109383956D01*
G37*
G36*
X182873891Y-116808832D02*
X182343194Y-116278135D01*
X183545615Y-115075714D01*
X184076312Y-115606411D01*
X182873891Y-116808832D01*
X182873891Y-116808832D01*
G37*
G36*
X183227713Y-117162654D02*
X182697016Y-116631957D01*
X183899437Y-115429536D01*
X184430134Y-115960233D01*
X183227713Y-117162654D01*
X183227713Y-117162654D01*
G37*
G36*
X183581535Y-117516476D02*
X183050838Y-116985779D01*
X184253259Y-115783358D01*
X184783956Y-116314055D01*
X183581535Y-117516476D01*
X183581535Y-117516476D01*
G37*
G36*
X192739601Y-115395340D02*
X191537180Y-114192919D01*
X192067877Y-113662222D01*
X193270298Y-114864643D01*
X192739601Y-115395340D01*
X192739601Y-115395340D01*
G37*
G36*
X193093423Y-115041518D02*
X191891002Y-113839097D01*
X192421699Y-113308400D01*
X193624120Y-114510821D01*
X193093423Y-115041518D01*
X193093423Y-115041518D01*
G37*
G36*
X193447245Y-114687695D02*
X192244824Y-113485274D01*
X192775521Y-112954577D01*
X193977942Y-114156998D01*
X193447245Y-114687695D01*
X193447245Y-114687695D01*
G37*
G36*
X193801068Y-114333873D02*
X192598647Y-113131452D01*
X193129344Y-112600755D01*
X194331765Y-113803176D01*
X193801068Y-114333873D01*
X193801068Y-114333873D01*
G37*
G36*
X194153094Y-113981847D02*
X192950673Y-112779426D01*
X193481370Y-112248729D01*
X194683791Y-113451150D01*
X194153094Y-113981847D01*
X194153094Y-113981847D01*
G37*
G36*
X189592919Y-107262820D02*
X189062222Y-106732123D01*
X190264643Y-105529702D01*
X190795340Y-106060399D01*
X189592919Y-107262820D01*
X189592919Y-107262820D01*
G37*
G36*
X189239097Y-106908998D02*
X188708400Y-106378301D01*
X189910821Y-105175880D01*
X190441518Y-105706577D01*
X189239097Y-106908998D01*
X189239097Y-106908998D01*
G37*
G36*
X188885274Y-106555176D02*
X188354577Y-106024479D01*
X189556998Y-104822058D01*
X190087695Y-105352755D01*
X188885274Y-106555176D01*
X188885274Y-106555176D01*
G37*
G36*
X188531452Y-106201353D02*
X188000755Y-105670656D01*
X189203176Y-104468235D01*
X189733873Y-104998932D01*
X188531452Y-106201353D01*
X188531452Y-106201353D01*
G37*
G36*
X188179426Y-105849327D02*
X187648729Y-105318630D01*
X188851150Y-104116209D01*
X189381847Y-104646906D01*
X188179426Y-105849327D01*
X188179426Y-105849327D01*
G37*
G36*
X182132123Y-109737778D02*
X180929702Y-108535357D01*
X181460399Y-108004660D01*
X182662820Y-109207081D01*
X182132123Y-109737778D01*
X182132123Y-109737778D01*
G37*
G36*
X181778301Y-110091600D02*
X180575880Y-108889179D01*
X181106577Y-108358482D01*
X182308998Y-109560903D01*
X181778301Y-110091600D01*
X181778301Y-110091600D01*
G37*
G36*
X181424479Y-110445423D02*
X180222058Y-109243002D01*
X180752755Y-108712305D01*
X181955176Y-109914726D01*
X181424479Y-110445423D01*
X181424479Y-110445423D01*
G37*
G36*
X181070656Y-110799245D02*
X179868235Y-109596824D01*
X180398932Y-109066127D01*
X181601353Y-110268548D01*
X181070656Y-110799245D01*
X181070656Y-110799245D01*
G37*
G36*
X180718630Y-111151271D02*
X179516209Y-109948850D01*
X180046906Y-109418153D01*
X181249327Y-110620574D01*
X180718630Y-111151271D01*
X180718630Y-111151271D01*
G37*
G36*
X183935357Y-117870298D02*
X183404660Y-117339601D01*
X184607081Y-116137180D01*
X185137778Y-116667877D01*
X183935357Y-117870298D01*
X183935357Y-117870298D01*
G37*
G36*
X184289179Y-118224120D02*
X183758482Y-117693423D01*
X184960903Y-116491002D01*
X185491600Y-117021699D01*
X184289179Y-118224120D01*
X184289179Y-118224120D01*
G37*
G36*
X184643002Y-118577942D02*
X184112305Y-118047245D01*
X185314726Y-116844824D01*
X185845423Y-117375521D01*
X184643002Y-118577942D01*
X184643002Y-118577942D01*
G37*
G36*
X184996824Y-118931765D02*
X184466127Y-118401068D01*
X185668548Y-117198647D01*
X186199245Y-117729344D01*
X184996824Y-118931765D01*
X184996824Y-118931765D01*
G37*
G36*
X185348850Y-119283791D02*
X184818153Y-118753094D01*
X186020574Y-117550673D01*
X186551271Y-118081370D01*
X185348850Y-119283791D01*
X185348850Y-119283791D01*
G37*
G36*
X195716116Y-126124443D02*
X194372613Y-124780940D01*
X196069670Y-123083883D01*
X197413173Y-124427386D01*
X195716116Y-126124443D01*
X195716116Y-126124443D01*
G37*
G36*
X198827386Y-123013173D02*
X197483883Y-121669670D01*
X199180940Y-119972613D01*
X200524443Y-121316116D01*
X198827386Y-123013173D01*
X198827386Y-123013173D01*
G37*
G36*
X197130330Y-121316117D02*
X195786827Y-119972614D01*
X197483884Y-118275557D01*
X198827387Y-119619060D01*
X197130330Y-121316117D01*
X197130330Y-121316117D01*
G37*
G36*
X194019060Y-124427387D02*
X192675557Y-123083884D01*
X194372614Y-121386827D01*
X195716117Y-122730330D01*
X194019060Y-124427387D01*
X194019060Y-124427387D01*
G37*
D11*
X153889468Y-114889744D03*
D12*
X156429468Y-114889744D03*
X158969468Y-114889744D03*
X161509468Y-114889744D03*
D13*
X109000000Y-55420000D03*
D14*
X109000000Y-57960000D03*
X109000000Y-60500000D03*
X109000000Y-63040000D03*
X109000000Y-65580000D03*
D11*
X173720000Y-119600000D03*
D12*
X171180000Y-119600000D03*
X168640000Y-119600000D03*
X166100000Y-119600000D03*
X163560000Y-119600000D03*
X161020000Y-119600000D03*
X158480000Y-119600000D03*
D11*
X144970000Y-86400000D03*
D12*
X147510000Y-86400000D03*
X150050000Y-86400000D03*
X152590000Y-86400000D03*
X155130000Y-86400000D03*
X157670000Y-86400000D03*
X160210000Y-86400000D03*
X162750000Y-86400000D03*
X165290000Y-86400000D03*
X167830000Y-86400000D03*
D11*
X161940000Y-100650000D03*
D12*
X164480000Y-100650000D03*
X167020000Y-100650000D03*
X169560000Y-100650000D03*
D11*
X175830000Y-114850000D03*
D12*
X173290000Y-114850000D03*
X170750000Y-114850000D03*
X168210000Y-114850000D03*
X165670000Y-114850000D03*
D13*
X142800000Y-131820000D03*
D14*
X142800000Y-134360000D03*
X142800000Y-136900000D03*
X142800000Y-139440000D03*
X142800000Y-141980000D03*
D13*
X134150000Y-98860000D03*
D14*
X134150000Y-96320000D03*
X134150000Y-93780000D03*
X134150000Y-91240000D03*
D13*
X130000000Y-52880000D03*
D14*
X130000000Y-55420000D03*
X130000000Y-57960000D03*
X130000000Y-60500000D03*
X130000000Y-63040000D03*
X130000000Y-65580000D03*
X130000000Y-68120000D03*
D11*
X160360000Y-61150000D03*
D12*
X157820000Y-61150000D03*
X155280000Y-61150000D03*
X152740000Y-61150000D03*
D13*
X124000000Y-86650000D03*
D14*
X124000000Y-84110000D03*
X124000000Y-81570000D03*
X124000000Y-79030000D03*
X124000000Y-76490000D03*
X124000000Y-73950000D03*
D13*
X109100000Y-83380000D03*
D14*
X109100000Y-80840000D03*
X109100000Y-78300000D03*
X109100000Y-75760000D03*
X109100000Y-73220000D03*
D11*
X183040000Y-68750000D03*
D12*
X180500000Y-68750000D03*
X177960000Y-68750000D03*
X175420000Y-68750000D03*
X172880000Y-68750000D03*
X170340000Y-68750000D03*
X167800000Y-68750000D03*
X165260000Y-68750000D03*
D13*
X201000000Y-75220000D03*
D14*
X201000000Y-77760000D03*
X201000000Y-80300000D03*
X201000000Y-82840000D03*
D15*
X191250000Y-96838920D03*
D16*
X191250000Y-93801080D03*
X193790000Y-96838920D03*
X193790000Y-93801080D03*
X196330000Y-96838920D03*
X196330000Y-93801080D03*
X198870000Y-96838920D03*
X198870000Y-93801080D03*
D11*
X145150000Y-100100000D03*
D12*
X147690000Y-100100000D03*
X150230000Y-100100000D03*
X152770000Y-100100000D03*
X155310000Y-100100000D03*
X157850000Y-100100000D03*
D10*
G36*
X194132448Y-117677065D02*
X195122935Y-118667552D01*
X194204290Y-119586197D01*
X193213803Y-118595710D01*
X194132448Y-117677065D01*
X194132448Y-117677065D01*
G37*
G36*
X195195710Y-116613803D02*
X196186197Y-117604290D01*
X195267552Y-118522935D01*
X194277065Y-117532448D01*
X195195710Y-116613803D01*
X195195710Y-116613803D01*
G37*
G36*
X193067552Y-120722935D02*
X192077065Y-119732448D01*
X192995710Y-118813803D01*
X193986197Y-119804290D01*
X193067552Y-120722935D01*
X193067552Y-120722935D01*
G37*
G36*
X192004290Y-121786197D02*
X191013803Y-120795710D01*
X191932448Y-119877065D01*
X192922935Y-120867552D01*
X192004290Y-121786197D01*
X192004290Y-121786197D01*
G37*
G36*
X189422935Y-120832448D02*
X188432448Y-121822935D01*
X187513803Y-120904290D01*
X188504290Y-119913803D01*
X189422935Y-120832448D01*
X189422935Y-120832448D01*
G37*
G36*
X190486197Y-121895710D02*
X189495710Y-122886197D01*
X188577065Y-121967552D01*
X189567552Y-120977065D01*
X190486197Y-121895710D01*
X190486197Y-121895710D01*
G37*
G36*
X196332448Y-115477065D02*
X197322935Y-116467552D01*
X196404290Y-117386197D01*
X195413803Y-116395710D01*
X196332448Y-115477065D01*
X196332448Y-115477065D01*
G37*
G36*
X197395710Y-114413803D02*
X198386197Y-115404290D01*
X197467552Y-116322935D01*
X196477065Y-115332448D01*
X197395710Y-114413803D01*
X197395710Y-114413803D01*
G37*
G36*
X195332448Y-107477065D02*
X196322935Y-108467552D01*
X195404290Y-109386197D01*
X194413803Y-108395710D01*
X195332448Y-107477065D01*
X195332448Y-107477065D01*
G37*
G36*
X196395710Y-106413803D02*
X197386197Y-107404290D01*
X196467552Y-108322935D01*
X195477065Y-107332448D01*
X196395710Y-106413803D01*
X196395710Y-106413803D01*
G37*
G36*
X189632448Y-101777065D02*
X190622935Y-102767552D01*
X189704290Y-103686197D01*
X188713803Y-102695710D01*
X189632448Y-101777065D01*
X189632448Y-101777065D01*
G37*
G36*
X190695710Y-100713803D02*
X191686197Y-101704290D01*
X190767552Y-102622935D01*
X189777065Y-101632448D01*
X190695710Y-100713803D01*
X190695710Y-100713803D01*
G37*
G36*
X176377065Y-109567552D02*
X177367552Y-108577065D01*
X178286197Y-109495710D01*
X177295710Y-110486197D01*
X176377065Y-109567552D01*
X176377065Y-109567552D01*
G37*
G36*
X175313803Y-108504290D02*
X176304290Y-107513803D01*
X177222935Y-108432448D01*
X176232448Y-109422935D01*
X175313803Y-108504290D01*
X175313803Y-108504290D01*
G37*
G36*
X185867552Y-121922935D02*
X184877065Y-120932448D01*
X185795710Y-120013803D01*
X186786197Y-121004290D01*
X185867552Y-121922935D01*
X185867552Y-121922935D01*
G37*
G36*
X184804290Y-122986197D02*
X183813803Y-121995710D01*
X184732448Y-121077065D01*
X185722935Y-122067552D01*
X184804290Y-122986197D01*
X184804290Y-122986197D01*
G37*
G36*
X177477065Y-108467552D02*
X178467552Y-107477065D01*
X179386197Y-108395710D01*
X178395710Y-109386197D01*
X177477065Y-108467552D01*
X177477065Y-108467552D01*
G37*
G36*
X176413803Y-107404290D02*
X177404290Y-106413803D01*
X178322935Y-107332448D01*
X177332448Y-108322935D01*
X176413803Y-107404290D01*
X176413803Y-107404290D01*
G37*
G36*
X190732448Y-102877065D02*
X191722935Y-103867552D01*
X190804290Y-104786197D01*
X189813803Y-103795710D01*
X190732448Y-102877065D01*
X190732448Y-102877065D01*
G37*
G36*
X191795710Y-101813803D02*
X192786197Y-102804290D01*
X191867552Y-103722935D01*
X190877065Y-102732448D01*
X191795710Y-101813803D01*
X191795710Y-101813803D01*
G37*
D17*
X201800000Y-112800000D03*
D18*
X201800000Y-110800000D03*
X201800000Y-108800000D03*
X201800000Y-106800000D03*
X201800000Y-104800000D03*
X201800000Y-102800000D03*
D19*
X112819500Y-97129760D03*
D20*
X113098900Y-91102340D03*
X113098900Y-91902440D03*
X113098900Y-92700000D03*
X113098900Y-93497560D03*
X113098900Y-94297660D03*
D21*
X110571600Y-90502900D03*
X110571600Y-94899640D03*
D19*
X112819500Y-88270240D03*
X107320400Y-88270240D03*
X107320400Y-97129760D03*
D22*
X183950980Y-134000000D03*
X186049020Y-134000000D03*
X197950980Y-134000000D03*
X200049020Y-134000000D03*
X197950980Y-146000000D03*
X200049020Y-146000000D03*
X183950980Y-146000000D03*
X186049020Y-146000000D03*
D23*
X118248160Y-91600000D03*
X119751840Y-91600000D03*
X119751840Y-93600000D03*
X118248160Y-93600000D03*
D24*
X188400820Y-140000000D03*
X195599180Y-140000000D03*
X184000000Y-143599180D03*
X184000000Y-136400820D03*
X200000000Y-143599180D03*
X200000000Y-136400820D03*
X188400820Y-134000000D03*
X195599180Y-134000000D03*
X188400820Y-146000000D03*
X195599180Y-146000000D03*
D25*
X107200000Y-147800000D03*
X107200000Y-52200000D03*
X202800000Y-52200000D03*
X202800000Y-147800000D03*
D11*
X119670000Y-99200000D03*
D12*
X117130000Y-99200000D03*
D11*
X107600000Y-104500000D03*
X147200000Y-104300000D03*
X107600000Y-121500000D03*
X147100000Y-121500000D03*
D13*
X183110000Y-89840000D03*
D14*
X183110000Y-87300000D03*
X183110000Y-84760000D03*
X183110000Y-82220000D03*
X183110000Y-79680000D03*
X183110000Y-77140000D03*
X183110000Y-74600000D03*
M02*
